<?xml version="1.0" encoding="utf-8"?>
<!-- Generator: Adobe Illustrator 24.2.0, SVG Export Plug-In . SVG Version: 6.00 Build 0)  -->
<svg version="1.1" xmlns="http://www.w3.org/2000/svg" xmlns:xlink="http://www.w3.org/1999/xlink" x="0px" y="0px"
	 viewBox="0 0 800 800" style="enable-background:new 0 0 800 800;" xml:space="preserve">
<style type="text/css">
	.st0{display:none;}
	.st1{display:inline;fill:#231F20;}
	.st2{fill:#231F20;}
</style>
<g id="Layer_1" class="st0">
	<rect x="340" class="st1" width="120" height="800"/>
	<rect x="0" y="350.3" class="st1" width="800" height="120"/>
</g>
<g id="Rounded">
	<path class="st2" d="M414.8,800h-29.7c-19.4,0-35.2-15.7-35.2-35.2V35.2C350,15.7,365.7,0,385.2,0h29.7C434.3,0,450,15.7,450,35.2
		v729.7C450,784.3,434.3,800,414.8,800z"/>
	<path class="st2" d="M800,385.2v29.7c0,19.4-15.7,35.2-35.2,35.2H35.2C15.7,450,0,434.3,0,414.8v-29.7C0,365.7,15.7,350,35.2,350
		h729.7C784.3,350,800,365.7,800,385.2z"/>
</g>
</svg>
